<svg width="512" height="512" viewBox="0 0 512 512" fill="none" xmlns="http://www.w3.org/2000/svg">
  <defs>
    <linearGradient id="clayStroke" x1="128" y1="72" x2="376" y2="420" gradientUnits="userSpaceOnUse">
      <stop stop-color="#d5542f"/>
      <stop offset="1" stop-color="#d7c768"/>
    </linearGradient>
  </defs>
  <path d="M118 150C152 108 204 88 256 88C352 88 424 154 424 250C424 364 330 428 238 428C160 428 96 378 88 300" stroke="url(#clayStroke)" stroke-width="28" stroke-linecap="round"/>
  <path d="M160 214C186 176 226 156 270 156C332 156 376 202 376 264C376 338 318 382 252 382C204 382 166 358 148 322" stroke="#f1ebdc" stroke-opacity="0.96" stroke-width="20" stroke-linecap="round"/>
  <path d="M198 256C214 230 244 214 278 214C318 214 346 244 346 282C346 326 310 350 274 350C248 350 222 338 208 318" stroke="#8cd7c2" stroke-width="16" stroke-linecap="round"/>
  <path d="M256 114V62" stroke="#d7c768" stroke-width="12" stroke-linecap="round"/>
  <path d="M392 168L436 132" stroke="#d7c768" stroke-width="12" stroke-linecap="round"/>
  <path d="M120 372L74 402" stroke="#d7c768" stroke-width="12" stroke-linecap="round"/>
  <circle cx="256" cy="62" r="12" fill="#d7c768"/>
  <circle cx="448" cy="122" r="12" fill="#d5542f"/>
  <circle cx="64" cy="410" r="12" fill="#8cd7c2"/>
</svg>